<mxfile host="Electron" agent="Mozilla/5.0 (Windows NT 10.0; Win64; x64) AppleWebKit/537.36 (KHTML, like Gecko) draw.io/27.0.9 Chrome/134.0.6998.205 Electron/35.4.0 Safari/537.36" version="27.0.9">
  <diagram name="第 1 页" id="otLjSmJtDEuvan5cJF8K">
    <mxGraphModel dx="2431" dy="1413" grid="1" gridSize="10" guides="1" tooltips="1" connect="1" arrows="1" fold="1" page="1" pageScale="1" pageWidth="1169" pageHeight="1654" math="0" shadow="0">
      <root>
        <mxCell id="0" />
        <mxCell id="1" parent="0" />
        <mxCell id="hWpMFfLvjbXtRHKQ2DW0-1" value="" style="rounded=0;whiteSpace=wrap;html=1;fillColor=none;strokeColor=#6c8ebf;" vertex="1" parent="1">
          <mxGeometry x="120" y="280" width="640" height="750" as="geometry" />
        </mxCell>
        <mxCell id="hWpMFfLvjbXtRHKQ2DW0-2" value="&lt;div style=&quot;line-height: 10%;&quot;&gt;&lt;h1 style=&quot;line-height: 10%;&quot;&gt;&lt;font&gt;&lt;span style=&quot;font-size: 18px; line-height: 10%;&quot;&gt;中断相关节点图示（掌握）&lt;/span&gt;&lt;/font&gt;&lt;/h1&gt;&lt;/div&gt;" style="html=1;shadow=0;dashed=0;shape=mxgraph.bootstrap.rrect;rSize=5;strokeWidth=1;whiteSpace=wrap;align=center;verticalAlign=middle;spacingLeft=0;fontStyle=1;fontSize=14;spacing=5;" vertex="1" parent="1">
          <mxGeometry x="120" y="280" width="640" height="30" as="geometry" />
        </mxCell>
        <mxCell id="hWpMFfLvjbXtRHKQ2DW0-263" style="edgeStyle=orthogonalEdgeStyle;rounded=0;orthogonalLoop=1;jettySize=auto;html=1;entryX=0;entryY=0.5;entryDx=0;entryDy=0;curved=1;strokeWidth=2;fillColor=#dae8fc;strokeColor=#6c8ebf;" edge="1" parent="1" source="hWpMFfLvjbXtRHKQ2DW0-4" target="hWpMFfLvjbXtRHKQ2DW0-25">
          <mxGeometry relative="1" as="geometry" />
        </mxCell>
        <mxCell id="hWpMFfLvjbXtRHKQ2DW0-4" value="&lt;font style=&quot;font-size: 16px;&quot;&gt;&lt;span style=&quot;white-space: pre;&quot;&gt;&#x9;&lt;/span&gt;&lt;/font&gt;&lt;span style=&quot;font-size: 16px;&quot;&gt;reg = &amp;lt;0x0 0xfe600000 0x0 0x10000&amp;gt;;&lt;/span&gt;" style="text;html=1;align=left;verticalAlign=middle;whiteSpace=wrap;rounded=0;dashed=1;fontSize=14;fillColor=#dae8fc;strokeColor=none;" vertex="1" parent="1">
          <mxGeometry x="120" y="350" width="640" height="20" as="geometry" />
        </mxCell>
        <mxCell id="hWpMFfLvjbXtRHKQ2DW0-264" style="edgeStyle=orthogonalEdgeStyle;rounded=0;orthogonalLoop=1;jettySize=auto;html=1;entryX=0;entryY=0.5;entryDx=0;entryDy=0;curved=1;strokeWidth=2;fillColor=#dae8fc;strokeColor=#6c8ebf;" edge="1" parent="1" source="hWpMFfLvjbXtRHKQ2DW0-5" target="hWpMFfLvjbXtRHKQ2DW0-88">
          <mxGeometry relative="1" as="geometry" />
        </mxCell>
        <mxCell id="hWpMFfLvjbXtRHKQ2DW0-5" value="&lt;span style=&quot;font-size: 16px;&quot;&gt;&lt;span style=&quot;white-space: pre;&quot;&gt;&#x9;&lt;/span&gt;&lt;b&gt;interrupt-controller;&amp;nbsp; &amp;nbsp; &amp;nbsp; &amp;nbsp; &amp;nbsp; &amp;nbsp; &amp;nbsp; &amp;nbsp; &amp;nbsp; &amp;nbsp; &amp;nbsp; &amp;nbsp; &amp;nbsp; &amp;nbsp; &amp;nbsp;&lt;span style=&quot;white-space: pre;&quot;&gt;&#x9;&lt;/span&gt;&lt;span style=&quot;white-space: pre;&quot;&gt;&#x9;&lt;/span&gt;&lt;span style=&quot;white-space: pre;&quot;&gt;&#x9;&lt;span style=&quot;white-space: pre;&quot;&gt;&#x9;&lt;/span&gt;&lt;/span&gt;// 标识为中断控制器&lt;/b&gt;&lt;/span&gt;" style="text;html=1;align=left;verticalAlign=middle;whiteSpace=wrap;rounded=0;dashed=1;fontSize=14;fillColor=#dae8fc;strokeColor=none;" vertex="1" parent="1">
          <mxGeometry x="120" y="370" width="640" height="20" as="geometry" />
        </mxCell>
        <mxCell id="hWpMFfLvjbXtRHKQ2DW0-6" value="&lt;span style=&quot;font-size: 16px;&quot;&gt;};&lt;/span&gt;" style="text;html=1;align=left;verticalAlign=middle;whiteSpace=wrap;rounded=0;dashed=1;fontSize=14;fillColor=#dae8fc;strokeColor=none;" vertex="1" parent="1">
          <mxGeometry x="120" y="410" width="640" height="20" as="geometry" />
        </mxCell>
        <mxCell id="hWpMFfLvjbXtRHKQ2DW0-207" style="edgeStyle=orthogonalEdgeStyle;rounded=0;orthogonalLoop=1;jettySize=auto;html=1;entryX=0;entryY=0.5;entryDx=0;entryDy=0;fillColor=#dae8fc;strokeColor=#6c8ebf;strokeWidth=2;curved=1;" edge="1" parent="1" source="hWpMFfLvjbXtRHKQ2DW0-18" target="hWpMFfLvjbXtRHKQ2DW0-28">
          <mxGeometry relative="1" as="geometry" />
        </mxCell>
        <mxCell id="hWpMFfLvjbXtRHKQ2DW0-18" value="&lt;span style=&quot;font-size: 16px;&quot;&gt;gic: interrupt-controller@fe600000 {&lt;/span&gt;" style="text;html=1;align=left;verticalAlign=middle;whiteSpace=wrap;rounded=0;dashed=1;fontSize=14;fillColor=#dae8fc;strokeColor=none;" vertex="1" parent="1">
          <mxGeometry x="120" y="310" width="640" height="20" as="geometry" />
        </mxCell>
        <mxCell id="hWpMFfLvjbXtRHKQ2DW0-265" style="edgeStyle=orthogonalEdgeStyle;rounded=0;orthogonalLoop=1;jettySize=auto;html=1;entryX=0;entryY=0.5;entryDx=0;entryDy=0;curved=1;strokeWidth=2;fillColor=#dae8fc;strokeColor=#6c8ebf;" edge="1" parent="1" source="hWpMFfLvjbXtRHKQ2DW0-20" target="hWpMFfLvjbXtRHKQ2DW0-94">
          <mxGeometry relative="1" as="geometry" />
        </mxCell>
        <mxCell id="hWpMFfLvjbXtRHKQ2DW0-20" value="&lt;span style=&quot;font-size: 16px;&quot;&gt;&lt;span style=&quot;white-space: pre;&quot;&gt;&#x9;&lt;/span&gt;&lt;b&gt;#interrupt-cells = &amp;lt;3&amp;gt;;&amp;nbsp; &amp;nbsp; &amp;nbsp; &amp;nbsp; &amp;nbsp; &amp;nbsp; &amp;nbsp; &amp;nbsp; &amp;nbsp; &amp;nbsp; &amp;nbsp; &amp;nbsp; &amp;nbsp; &amp;nbsp;&lt;span style=&quot;white-space: pre;&quot;&gt;&#x9;&lt;/span&gt;&lt;span style=&quot;white-space: pre;&quot;&gt;&#x9;&lt;/span&gt;&lt;span style=&quot;white-space: pre;&quot;&gt;&#x9;&lt;/span&gt;// GIC需要3个参数&lt;/b&gt;&lt;/span&gt;" style="text;html=1;align=left;verticalAlign=middle;whiteSpace=wrap;rounded=0;dashed=1;fontSize=14;fillColor=#dae8fc;strokeColor=none;" vertex="1" parent="1">
          <mxGeometry x="120" y="390" width="640" height="20" as="geometry" />
        </mxCell>
        <mxCell id="hWpMFfLvjbXtRHKQ2DW0-21" value="" style="shape=table;startSize=0;container=1;collapsible=0;childLayout=tableLayout;fixedRows=1;rowLines=0;fontStyle=0;strokeColor=#6c8ebf;fontSize=16;fillColor=none;" vertex="1" parent="1">
          <mxGeometry x="830" y="309" width="610" height="251" as="geometry" />
        </mxCell>
        <mxCell id="hWpMFfLvjbXtRHKQ2DW0-22" value="" style="shape=tableRow;horizontal=0;startSize=0;swimlaneHead=0;swimlaneBody=0;top=0;left=0;bottom=0;right=0;collapsible=0;dropTarget=0;fillColor=none;points=[[0,0.5],[1,0.5]];portConstraint=eastwest;strokeColor=inherit;fontSize=16;" vertex="1" parent="hWpMFfLvjbXtRHKQ2DW0-21">
          <mxGeometry width="610" height="31" as="geometry" />
        </mxCell>
        <mxCell id="hWpMFfLvjbXtRHKQ2DW0-23" value="&lt;b&gt;&lt;font style=&quot;color: light-dark(rgb(0, 0, 0), rgb(255, 255, 255));&quot;&gt;compatible&lt;/font&gt;&lt;/b&gt;" style="shape=partialRectangle;html=1;whiteSpace=wrap;connectable=0;fillColor=none;top=0;left=0;bottom=0;right=0;overflow=hidden;pointerEvents=1;strokeColor=#82b366;fontSize=16;" vertex="1" parent="hWpMFfLvjbXtRHKQ2DW0-22">
          <mxGeometry width="150" height="31" as="geometry">
            <mxRectangle width="150" height="31" as="alternateBounds" />
          </mxGeometry>
        </mxCell>
        <mxCell id="hWpMFfLvjbXtRHKQ2DW0-24" value="可以通过其找到对应的&lt;b&gt;GIC中断控制器驱动文件&lt;/b&gt;" style="shape=partialRectangle;html=1;whiteSpace=wrap;connectable=0;fillColor=none;top=0;left=0;bottom=0;right=0;align=left;spacingLeft=6;overflow=hidden;strokeColor=#82b366;fontSize=16;" vertex="1" parent="hWpMFfLvjbXtRHKQ2DW0-22">
          <mxGeometry x="150" width="460" height="31" as="geometry">
            <mxRectangle width="460" height="31" as="alternateBounds" />
          </mxGeometry>
        </mxCell>
        <mxCell id="hWpMFfLvjbXtRHKQ2DW0-25" value="" style="shape=tableRow;horizontal=0;startSize=0;swimlaneHead=0;swimlaneBody=0;top=0;left=0;bottom=0;right=0;collapsible=0;dropTarget=0;fillColor=none;points=[[0,0.5],[1,0.5]];portConstraint=eastwest;strokeColor=inherit;fontSize=16;" vertex="1" parent="hWpMFfLvjbXtRHKQ2DW0-21">
          <mxGeometry y="31" width="610" height="40" as="geometry" />
        </mxCell>
        <mxCell id="hWpMFfLvjbXtRHKQ2DW0-26" value="&lt;b&gt;reg&lt;/b&gt;" style="shape=partialRectangle;html=1;whiteSpace=wrap;connectable=0;fillColor=none;top=0;left=0;bottom=0;right=0;overflow=hidden;pointerEvents=1;strokeColor=#d6b656;fontSize=16;" vertex="1" parent="hWpMFfLvjbXtRHKQ2DW0-25">
          <mxGeometry width="150" height="40" as="geometry">
            <mxRectangle width="150" height="40" as="alternateBounds" />
          </mxGeometry>
        </mxCell>
        <mxCell id="hWpMFfLvjbXtRHKQ2DW0-27" value="指定中断寄存器的地址和大小，&lt;br&gt;一般指的是Distributor和Redistributor寄存器" style="shape=partialRectangle;html=1;whiteSpace=wrap;connectable=0;fillColor=none;top=0;left=0;bottom=0;right=0;align=left;spacingLeft=6;overflow=hidden;strokeColor=#d6b656;fontSize=16;" vertex="1" parent="hWpMFfLvjbXtRHKQ2DW0-25">
          <mxGeometry x="150" width="460" height="40" as="geometry">
            <mxRectangle width="460" height="40" as="alternateBounds" />
          </mxGeometry>
        </mxCell>
        <mxCell id="hWpMFfLvjbXtRHKQ2DW0-88" value="" style="shape=tableRow;horizontal=0;startSize=0;swimlaneHead=0;swimlaneBody=0;top=0;left=0;bottom=0;right=0;collapsible=0;dropTarget=0;fillColor=none;points=[[0,0.5],[1,0.5]];portConstraint=eastwest;strokeColor=inherit;fontSize=16;" vertex="1" parent="hWpMFfLvjbXtRHKQ2DW0-21">
          <mxGeometry y="71" width="610" height="30" as="geometry" />
        </mxCell>
        <mxCell id="hWpMFfLvjbXtRHKQ2DW0-89" value="&lt;b&gt;&lt;font style=&quot;color: light-dark(rgb(0, 0, 0), rgb(255, 255, 255));&quot;&gt;interrupt-controller&lt;/font&gt;&lt;/b&gt;" style="shape=partialRectangle;html=1;whiteSpace=wrap;connectable=0;fillColor=none;top=0;left=0;bottom=0;right=0;overflow=hidden;pointerEvents=1;strokeColor=#82b366;fontSize=16;" vertex="1" parent="hWpMFfLvjbXtRHKQ2DW0-88">
          <mxGeometry width="150" height="30" as="geometry">
            <mxRectangle width="150" height="30" as="alternateBounds" />
          </mxGeometry>
        </mxCell>
        <mxCell id="hWpMFfLvjbXtRHKQ2DW0-90" value="标识当前节点所描述的设备是一个&lt;b&gt;中断控制器&lt;/b&gt;" style="shape=partialRectangle;html=1;whiteSpace=wrap;connectable=0;fillColor=none;top=0;left=0;bottom=0;right=0;align=left;spacingLeft=6;overflow=hidden;strokeColor=#82b366;fontSize=16;" vertex="1" parent="hWpMFfLvjbXtRHKQ2DW0-88">
          <mxGeometry x="150" width="460" height="30" as="geometry">
            <mxRectangle width="460" height="30" as="alternateBounds" />
          </mxGeometry>
        </mxCell>
        <mxCell id="hWpMFfLvjbXtRHKQ2DW0-94" value="" style="shape=tableRow;horizontal=0;startSize=0;swimlaneHead=0;swimlaneBody=0;top=0;left=0;bottom=0;right=0;collapsible=0;dropTarget=0;fillColor=none;points=[[0,0.5],[1,0.5]];portConstraint=eastwest;strokeColor=inherit;fontSize=16;" vertex="1" parent="hWpMFfLvjbXtRHKQ2DW0-21">
          <mxGeometry y="101" width="610" height="30" as="geometry" />
        </mxCell>
        <mxCell id="hWpMFfLvjbXtRHKQ2DW0-95" value="&lt;b&gt;#interrupt-cells&lt;/b&gt;" style="shape=partialRectangle;html=1;whiteSpace=wrap;connectable=0;fillColor=none;top=0;left=0;bottom=0;right=0;overflow=hidden;pointerEvents=1;strokeColor=#d6b656;fontSize=16;" vertex="1" parent="hWpMFfLvjbXtRHKQ2DW0-94">
          <mxGeometry width="150" height="30" as="geometry">
            <mxRectangle width="150" height="30" as="alternateBounds" />
          </mxGeometry>
        </mxCell>
        <mxCell id="hWpMFfLvjbXtRHKQ2DW0-96" value="该控制器管理的中断，使用interrupts属性时，u32的个数" style="shape=partialRectangle;html=1;whiteSpace=wrap;connectable=0;fillColor=none;top=0;left=0;bottom=0;right=0;align=left;spacingLeft=6;overflow=hidden;strokeColor=#d6b656;fontSize=16;" vertex="1" parent="hWpMFfLvjbXtRHKQ2DW0-94">
          <mxGeometry x="150" width="460" height="30" as="geometry">
            <mxRectangle width="460" height="30" as="alternateBounds" />
          </mxGeometry>
        </mxCell>
        <mxCell id="hWpMFfLvjbXtRHKQ2DW0-140" value="" style="shape=tableRow;horizontal=0;startSize=0;swimlaneHead=0;swimlaneBody=0;top=0;left=0;bottom=0;right=0;collapsible=0;dropTarget=0;fillColor=none;points=[[0,0.5],[1,0.5]];portConstraint=eastwest;strokeColor=inherit;fontSize=16;" vertex="1" parent="hWpMFfLvjbXtRHKQ2DW0-21">
          <mxGeometry y="131" width="610" height="30" as="geometry" />
        </mxCell>
        <mxCell id="hWpMFfLvjbXtRHKQ2DW0-141" value="&lt;b&gt;第一个u32&lt;/b&gt;" style="shape=partialRectangle;html=1;whiteSpace=wrap;connectable=0;fillColor=none;top=0;left=0;bottom=0;right=0;overflow=hidden;pointerEvents=1;strokeColor=#d6b656;fontSize=16;" vertex="1" parent="hWpMFfLvjbXtRHKQ2DW0-140">
          <mxGeometry width="150" height="30" as="geometry">
            <mxRectangle width="150" height="30" as="alternateBounds" />
          </mxGeometry>
        </mxCell>
        <mxCell id="hWpMFfLvjbXtRHKQ2DW0-142" value="&lt;b&gt;中断类型&lt;/b&gt;，0表示SPI中断，1表示PPI中断" style="shape=partialRectangle;html=1;whiteSpace=wrap;connectable=0;fillColor=none;top=0;left=0;bottom=0;right=0;align=left;spacingLeft=6;overflow=hidden;strokeColor=#d6b656;fontSize=16;" vertex="1" parent="hWpMFfLvjbXtRHKQ2DW0-140">
          <mxGeometry x="150" width="460" height="30" as="geometry">
            <mxRectangle width="460" height="30" as="alternateBounds" />
          </mxGeometry>
        </mxCell>
        <mxCell id="hWpMFfLvjbXtRHKQ2DW0-143" value="" style="shape=tableRow;horizontal=0;startSize=0;swimlaneHead=0;swimlaneBody=0;top=0;left=0;bottom=0;right=0;collapsible=0;dropTarget=0;fillColor=none;points=[[0,0.5],[1,0.5]];portConstraint=eastwest;strokeColor=inherit;fontSize=16;" vertex="1" parent="hWpMFfLvjbXtRHKQ2DW0-21">
          <mxGeometry y="161" width="610" height="40" as="geometry" />
        </mxCell>
        <mxCell id="hWpMFfLvjbXtRHKQ2DW0-144" value="&lt;b&gt;第二个u32&lt;/b&gt;" style="shape=partialRectangle;html=1;whiteSpace=wrap;connectable=0;fillColor=none;top=0;left=0;bottom=0;right=0;overflow=hidden;pointerEvents=1;strokeColor=#d6b656;fontSize=16;" vertex="1" parent="hWpMFfLvjbXtRHKQ2DW0-143">
          <mxGeometry width="150" height="40" as="geometry">
            <mxRectangle width="150" height="40" as="alternateBounds" />
          </mxGeometry>
        </mxCell>
        <mxCell id="hWpMFfLvjbXtRHKQ2DW0-145" value="&lt;b&gt;中断号&lt;/b&gt;，可以查芯片文档，&lt;b&gt;前面GIC控制器已经说过&lt;/b&gt;" style="shape=partialRectangle;html=1;whiteSpace=wrap;connectable=0;fillColor=none;top=0;left=0;bottom=0;right=0;align=left;spacingLeft=6;overflow=hidden;strokeColor=#d6b656;fontSize=16;" vertex="1" parent="hWpMFfLvjbXtRHKQ2DW0-143">
          <mxGeometry x="150" width="460" height="40" as="geometry">
            <mxRectangle width="460" height="40" as="alternateBounds" />
          </mxGeometry>
        </mxCell>
        <mxCell id="hWpMFfLvjbXtRHKQ2DW0-146" value="" style="shape=tableRow;horizontal=0;startSize=0;swimlaneHead=0;swimlaneBody=0;top=0;left=0;bottom=0;right=0;collapsible=0;dropTarget=0;fillColor=none;points=[[0,0.5],[1,0.5]];portConstraint=eastwest;strokeColor=inherit;fontSize=16;" vertex="1" parent="hWpMFfLvjbXtRHKQ2DW0-21">
          <mxGeometry y="201" width="610" height="50" as="geometry" />
        </mxCell>
        <mxCell id="hWpMFfLvjbXtRHKQ2DW0-147" value="&lt;b&gt;第三个u32&lt;/b&gt;" style="shape=partialRectangle;html=1;whiteSpace=wrap;connectable=0;fillColor=none;top=0;left=0;bottom=0;right=0;overflow=hidden;pointerEvents=1;strokeColor=#d6b656;fontSize=16;" vertex="1" parent="hWpMFfLvjbXtRHKQ2DW0-146">
          <mxGeometry width="150" height="50" as="geometry">
            <mxRectangle width="150" height="50" as="alternateBounds" />
          </mxGeometry>
        </mxCell>
        <mxCell id="hWpMFfLvjbXtRHKQ2DW0-148" value="中断触发类型&lt;br&gt;在include/dt-bindings/interrupt-controller/irq.h定义" style="shape=partialRectangle;html=1;whiteSpace=wrap;connectable=0;fillColor=none;top=0;left=0;bottom=0;right=0;align=left;spacingLeft=6;overflow=hidden;strokeColor=#d6b656;fontSize=16;" vertex="1" parent="hWpMFfLvjbXtRHKQ2DW0-146">
          <mxGeometry x="150" width="460" height="50" as="geometry">
            <mxRectangle width="460" height="50" as="alternateBounds" />
          </mxGeometry>
        </mxCell>
        <mxCell id="hWpMFfLvjbXtRHKQ2DW0-28" value="&lt;h1&gt;&lt;font style=&quot;&quot;&gt;&lt;font style=&quot;font-size: 18px;&quot;&gt;GIC中断控制器（顶级）&lt;/font&gt;&lt;br&gt;&lt;/font&gt;&lt;/h1&gt;" style="rounded=0;whiteSpace=wrap;html=1;fillColor=#dae8fc;strokeColor=#6c8ebf;" vertex="1" parent="1">
          <mxGeometry x="830" y="280" width="610" height="29" as="geometry" />
        </mxCell>
        <mxCell id="hWpMFfLvjbXtRHKQ2DW0-262" style="edgeStyle=orthogonalEdgeStyle;rounded=0;orthogonalLoop=1;jettySize=auto;html=1;entryX=0;entryY=0.5;entryDx=0;entryDy=0;curved=1;strokeWidth=2;fillColor=#dae8fc;strokeColor=#6c8ebf;" edge="1" parent="1" source="hWpMFfLvjbXtRHKQ2DW0-31" target="hWpMFfLvjbXtRHKQ2DW0-22">
          <mxGeometry relative="1" as="geometry" />
        </mxCell>
        <mxCell id="hWpMFfLvjbXtRHKQ2DW0-31" value="&lt;span style=&quot;font-size: 16px;&quot;&gt;&lt;span style=&quot;white-space: pre;&quot;&gt;&#x9;&lt;/span&gt;compatible = &quot;arm,gic-v3&quot;;&lt;span style=&quot;white-space: pre;&quot;&gt;&#x9;&lt;/span&gt;&lt;span style=&quot;white-space: pre;&quot;&gt;&#x9;&lt;/span&gt;&lt;span style=&quot;white-space: pre;&quot;&gt;&#x9;&lt;/span&gt;&lt;span style=&quot;white-space: pre;&quot;&gt;&#x9;&lt;/span&gt;&lt;/span&gt;" style="text;html=1;align=left;verticalAlign=middle;whiteSpace=wrap;rounded=0;dashed=1;fontSize=14;fillColor=#dae8fc;strokeColor=none;" vertex="1" parent="1">
          <mxGeometry x="120" y="330" width="640" height="20" as="geometry" />
        </mxCell>
        <mxCell id="hWpMFfLvjbXtRHKQ2DW0-33" value="&lt;span style=&quot;font-size: 16px;&quot;&gt;&lt;span style=&quot;white-space: pre;&quot;&gt;&#x9;&lt;/span&gt;reg = &amp;lt;0x0 0xfdd60000 0x0 0x100&amp;gt;;&lt;/span&gt;" style="text;html=1;align=left;verticalAlign=middle;whiteSpace=wrap;rounded=0;dashed=1;fontSize=14;fillColor=#f8cecc;strokeColor=none;" vertex="1" parent="1">
          <mxGeometry x="120" y="792" width="640" height="20" as="geometry" />
        </mxCell>
        <mxCell id="hWpMFfLvjbXtRHKQ2DW0-205" style="edgeStyle=orthogonalEdgeStyle;rounded=0;orthogonalLoop=1;jettySize=auto;html=1;entryX=0;entryY=0.5;entryDx=0;entryDy=0;fillColor=#f8cecc;strokeColor=#b85450;curved=1;strokeWidth=2;" edge="1" parent="1" source="hWpMFfLvjbXtRHKQ2DW0-34" target="hWpMFfLvjbXtRHKQ2DW0-182">
          <mxGeometry relative="1" as="geometry" />
        </mxCell>
        <mxCell id="hWpMFfLvjbXtRHKQ2DW0-34" value="&lt;span style=&quot;font-size: 16px;&quot;&gt;gpio0: gpio@fdd60000 {&lt;/span&gt;" style="text;html=1;align=left;verticalAlign=middle;whiteSpace=wrap;rounded=0;dashed=1;fontSize=14;fillColor=#f8cecc;strokeColor=none;" vertex="1" parent="1">
          <mxGeometry x="120" y="752" width="640" height="20" as="geometry" />
        </mxCell>
        <mxCell id="hWpMFfLvjbXtRHKQ2DW0-267" style="edgeStyle=orthogonalEdgeStyle;rounded=0;orthogonalLoop=1;jettySize=auto;html=1;entryX=0;entryY=0.5;entryDx=0;entryDy=0;fillColor=#f8cecc;strokeColor=#b85450;strokeWidth=2;curved=1;" edge="1" parent="1" source="hWpMFfLvjbXtRHKQ2DW0-35" target="hWpMFfLvjbXtRHKQ2DW0-176">
          <mxGeometry relative="1" as="geometry" />
        </mxCell>
        <mxCell id="hWpMFfLvjbXtRHKQ2DW0-35" value="&lt;span style=&quot;font-size: 16px;&quot;&gt;&lt;b&gt;&lt;span style=&quot;white-space: pre;&quot;&gt;&#x9;&lt;/span&gt;interrupt-controller;&amp;nbsp; &amp;nbsp; &amp;nbsp; &amp;nbsp; &amp;nbsp; &amp;nbsp; &amp;nbsp; &amp;nbsp; &amp;nbsp; &amp;nbsp; &amp;nbsp; &amp;nbsp; &amp;nbsp; &amp;nbsp; &amp;nbsp;&lt;span style=&quot;white-space: pre;&quot;&gt;&#x9;&lt;/span&gt;&lt;span style=&quot;white-space: pre;&quot;&gt;&#x9;&lt;/span&gt;&lt;span style=&quot;white-space: pre;&quot;&gt;&#x9;&lt;/span&gt;&lt;span style=&quot;white-space: pre;&quot;&gt;&#x9;&lt;/span&gt;&lt;/b&gt;&lt;/span&gt;" style="text;html=1;align=left;verticalAlign=middle;whiteSpace=wrap;rounded=0;dashed=1;fontSize=14;fillColor=#f8cecc;strokeColor=none;" vertex="1" parent="1">
          <mxGeometry x="120" y="812" width="640" height="20" as="geometry" />
        </mxCell>
        <mxCell id="hWpMFfLvjbXtRHKQ2DW0-36" value="&lt;span style=&quot;font-size: 16px;&quot;&gt;&lt;span style=&quot;white-space: pre;&quot;&gt;&#x9;&lt;/span&gt;compatible = &quot;rockchip,rk3568-gpio&quot;;&lt;/span&gt;" style="text;html=1;align=left;verticalAlign=middle;whiteSpace=wrap;rounded=0;dashed=1;fontSize=14;fillColor=#f8cecc;strokeColor=none;" vertex="1" parent="1">
          <mxGeometry x="120" y="772" width="640" height="20" as="geometry" />
        </mxCell>
        <mxCell id="hWpMFfLvjbXtRHKQ2DW0-258" style="edgeStyle=orthogonalEdgeStyle;rounded=0;orthogonalLoop=1;jettySize=auto;html=1;entryX=0;entryY=0.25;entryDx=0;entryDy=0;fillColor=#fff2cc;strokeColor=#d6b656;strokeWidth=2;" edge="1" parent="1" source="hWpMFfLvjbXtRHKQ2DW0-38" target="hWpMFfLvjbXtRHKQ2DW0-59">
          <mxGeometry relative="1" as="geometry">
            <Array as="points">
              <mxPoint x="80" y="842" />
              <mxPoint x="80" y="995" />
            </Array>
          </mxGeometry>
        </mxCell>
        <mxCell id="hWpMFfLvjbXtRHKQ2DW0-268" style="edgeStyle=orthogonalEdgeStyle;rounded=0;orthogonalLoop=1;jettySize=auto;html=1;entryX=0;entryY=0.5;entryDx=0;entryDy=0;fillColor=#f8cecc;strokeColor=#b85450;strokeWidth=2;curved=1;" edge="1" parent="1" source="hWpMFfLvjbXtRHKQ2DW0-38" target="hWpMFfLvjbXtRHKQ2DW0-179">
          <mxGeometry relative="1" as="geometry" />
        </mxCell>
        <mxCell id="hWpMFfLvjbXtRHKQ2DW0-38" value="&lt;span style=&quot;font-size: 16px;&quot;&gt;&lt;b&gt;&lt;span style=&quot;white-space: pre;&quot;&gt;&#x9;&lt;/span&gt;#interrupt-cells = &amp;lt;2&amp;gt;; &lt;span style=&quot;white-space: pre;&quot;&gt;&#x9;&lt;/span&gt;&lt;span style=&quot;white-space: pre;&quot;&gt;&#x9;&lt;/span&gt;&lt;span style=&quot;white-space: pre;&quot;&gt;&#x9;&lt;/span&gt;&lt;span style=&quot;white-space: pre;&quot;&gt;&#x9;&lt;/span&gt; &lt;span style=&quot;white-space: pre;&quot;&gt;&#x9;&lt;/span&gt;&amp;nbsp;&lt;/b&gt;&lt;/span&gt;" style="text;html=1;align=left;verticalAlign=middle;whiteSpace=wrap;rounded=0;dashed=1;fontSize=14;fillColor=#f8cecc;strokeColor=none;" vertex="1" parent="1">
          <mxGeometry x="120" y="832" width="640" height="20" as="geometry" />
        </mxCell>
        <mxCell id="hWpMFfLvjbXtRHKQ2DW0-269" style="edgeStyle=orthogonalEdgeStyle;rounded=0;orthogonalLoop=1;jettySize=auto;html=1;entryX=0;entryY=0.5;entryDx=0;entryDy=0;exitX=1;exitY=0.5;exitDx=0;exitDy=0;fillColor=#f8cecc;strokeColor=#b85450;strokeWidth=2;curved=1;" edge="1" parent="1" source="hWpMFfLvjbXtRHKQ2DW0-40" target="hWpMFfLvjbXtRHKQ2DW0-183">
          <mxGeometry relative="1" as="geometry" />
        </mxCell>
        <mxCell id="hWpMFfLvjbXtRHKQ2DW0-40" value="&lt;span style=&quot;font-size: 16px;&quot;&gt;&lt;b&gt;&lt;span style=&quot;white-space: pre;&quot;&gt;&#x9;&lt;/span&gt;interrupts = &amp;lt;GIC_SPI 33 IRQ_TYPE_LEVEL_HIGH&amp;gt;;&amp;nbsp;&lt;/b&gt;&lt;/span&gt;" style="text;html=1;align=left;verticalAlign=middle;whiteSpace=wrap;rounded=0;dashed=1;fontSize=14;fillColor=#f8cecc;strokeColor=none;" vertex="1" parent="1">
          <mxGeometry x="120" y="852" width="640" height="20" as="geometry" />
        </mxCell>
        <mxCell id="hWpMFfLvjbXtRHKQ2DW0-41" value="&lt;span style=&quot;font-size: 16px;&quot;&gt;&lt;span style=&quot;white-space: pre;&quot;&gt;&#x9;&lt;/span&gt;&lt;/span&gt;&lt;span style=&quot;font-size: 16px;&quot;&gt;// 向GIC上报的中断信息(3个参数)&lt;/span&gt;" style="text;html=1;align=left;verticalAlign=middle;whiteSpace=wrap;rounded=0;dashed=1;fontSize=14;fillColor=#f8cecc;strokeColor=none;" vertex="1" parent="1">
          <mxGeometry x="120" y="872" width="640" height="20" as="geometry" />
        </mxCell>
        <mxCell id="hWpMFfLvjbXtRHKQ2DW0-42" value="&lt;span style=&quot;font-size: 16px;&quot;&gt;};&lt;/span&gt;" style="text;html=1;align=left;verticalAlign=middle;whiteSpace=wrap;rounded=0;dashed=1;fontSize=14;fillColor=#f8cecc;strokeColor=none;" vertex="1" parent="1">
          <mxGeometry x="120" y="892" width="640" height="20" as="geometry" />
        </mxCell>
        <mxCell id="hWpMFfLvjbXtRHKQ2DW0-51" value="&lt;span style=&quot;font-size: 16px;&quot;&gt;&lt;span style=&quot;white-space: pre;&quot;&gt;&#x9;&lt;/span&gt;reg = &amp;lt;0x0 0xfe610000 0x0 0x1000&amp;gt;;&lt;/span&gt;" style="text;html=1;align=left;verticalAlign=middle;whiteSpace=wrap;rounded=0;dashed=1;fontSize=14;fillColor=#ffe6cc;strokeColor=none;" vertex="1" parent="1">
          <mxGeometry x="120" y="620" width="640" height="20" as="geometry" />
        </mxCell>
        <mxCell id="hWpMFfLvjbXtRHKQ2DW0-53" value="&lt;span style=&quot;font-size: 16px;&quot;&gt;};&lt;/span&gt;" style="text;html=1;align=left;verticalAlign=middle;whiteSpace=wrap;rounded=0;dashed=1;fontSize=14;fillColor=#ffe6cc;strokeColor=none;" vertex="1" parent="1">
          <mxGeometry x="120" y="660" width="640" height="20" as="geometry" />
        </mxCell>
        <mxCell id="hWpMFfLvjbXtRHKQ2DW0-206" style="edgeStyle=orthogonalEdgeStyle;rounded=0;orthogonalLoop=1;jettySize=auto;html=1;entryX=0;entryY=0.5;entryDx=0;entryDy=0;fillColor=#ffe6cc;strokeColor=#d79b00;strokeWidth=2;curved=1;" edge="1" parent="1" source="hWpMFfLvjbXtRHKQ2DW0-54" target="hWpMFfLvjbXtRHKQ2DW0-173">
          <mxGeometry relative="1" as="geometry" />
        </mxCell>
        <mxCell id="hWpMFfLvjbXtRHKQ2DW0-54" value="&lt;span style=&quot;font-size: 16px;&quot;&gt;spi0: spi@fe610000 {&lt;/span&gt;" style="text;html=1;align=left;verticalAlign=middle;whiteSpace=wrap;rounded=0;dashed=1;fontSize=14;fillColor=#ffe6cc;strokeColor=none;" vertex="1" parent="1">
          <mxGeometry x="120" y="580" width="640" height="20" as="geometry" />
        </mxCell>
        <mxCell id="hWpMFfLvjbXtRHKQ2DW0-266" style="edgeStyle=orthogonalEdgeStyle;rounded=0;orthogonalLoop=1;jettySize=auto;html=1;entryX=0;entryY=0.5;entryDx=0;entryDy=0;fillColor=#ffe6cc;strokeColor=#d79b00;curved=1;strokeWidth=2;" edge="1" parent="1" source="hWpMFfLvjbXtRHKQ2DW0-55" target="hWpMFfLvjbXtRHKQ2DW0-152">
          <mxGeometry relative="1" as="geometry" />
        </mxCell>
        <mxCell id="hWpMFfLvjbXtRHKQ2DW0-55" value="&lt;span style=&quot;font-size: 16px;&quot;&gt;&lt;span style=&quot;white-space: pre;&quot;&gt;&#x9;&lt;/span&gt;interrupts = &amp;lt;GIC_SPI 103 IRQ_TYPE_LEVEL_HIGH&amp;gt;;&amp;nbsp;&lt;/span&gt;" style="text;html=1;align=left;verticalAlign=middle;whiteSpace=wrap;rounded=0;dashed=1;fontSize=14;fillColor=#ffe6cc;fontStyle=1;strokeColor=none;" vertex="1" parent="1">
          <mxGeometry x="120" y="640" width="640" height="20" as="geometry" />
        </mxCell>
        <mxCell id="hWpMFfLvjbXtRHKQ2DW0-56" value="&lt;span style=&quot;font-size: 16px;&quot;&gt;&lt;span style=&quot;white-space: pre;&quot;&gt;&#x9;&lt;/span&gt;compatible = &quot;rockchip,rk3066-spi&quot;;&lt;/span&gt;" style="text;html=1;align=left;verticalAlign=middle;whiteSpace=wrap;rounded=0;dashed=1;fontSize=14;fillColor=#ffe6cc;strokeColor=none;" vertex="1" parent="1">
          <mxGeometry x="120" y="600" width="640" height="20" as="geometry" />
        </mxCell>
        <mxCell id="hWpMFfLvjbXtRHKQ2DW0-270" style="edgeStyle=orthogonalEdgeStyle;rounded=0;orthogonalLoop=1;jettySize=auto;html=1;entryX=0;entryY=0.5;entryDx=0;entryDy=0;fillColor=#e1d5e7;strokeColor=#9673a6;curved=1;strokeWidth=2;" edge="1" parent="1" source="hWpMFfLvjbXtRHKQ2DW0-58" target="hWpMFfLvjbXtRHKQ2DW0-194">
          <mxGeometry relative="1" as="geometry" />
        </mxCell>
        <mxCell id="hWpMFfLvjbXtRHKQ2DW0-58" value="&lt;b&gt;&lt;font style=&quot;font-size: 16px;&quot;&gt;&lt;span style=&quot;white-space: pre;&quot;&gt;&#x9;&lt;/span&gt;&lt;/font&gt;&lt;span style=&quot;font-size: 16px;&quot;&gt;interrupt-parent = &amp;lt;&amp;amp;gpio0&amp;gt;;&amp;nbsp; &amp;nbsp; &amp;nbsp; &amp;nbsp; &amp;nbsp; &amp;nbsp; &amp;nbsp; &amp;nbsp; &amp;nbsp; &amp;nbsp; &amp;nbsp; &lt;span style=&quot;white-space: pre;&quot;&gt;&#x9;&lt;/span&gt;&lt;span style=&quot;white-space: pre;&quot;&gt;&#x9;&lt;/span&gt;&lt;span style=&quot;white-space: pre;&quot;&gt;&#x9;&lt;/span&gt;&lt;/span&gt;&lt;/b&gt;" style="text;html=1;align=left;verticalAlign=middle;whiteSpace=wrap;rounded=0;dashed=1;fontSize=14;fillColor=#e1d5e7;strokeColor=none;" vertex="1" parent="1">
          <mxGeometry x="120" y="970" width="640" height="20" as="geometry" />
        </mxCell>
        <mxCell id="hWpMFfLvjbXtRHKQ2DW0-271" style="edgeStyle=orthogonalEdgeStyle;rounded=0;orthogonalLoop=1;jettySize=auto;html=1;entryX=0;entryY=0.5;entryDx=0;entryDy=0;fillColor=#e1d5e7;strokeColor=#9673a6;curved=1;strokeWidth=2;" edge="1" parent="1" source="hWpMFfLvjbXtRHKQ2DW0-59" target="hWpMFfLvjbXtRHKQ2DW0-197">
          <mxGeometry relative="1" as="geometry" />
        </mxCell>
        <mxCell id="hWpMFfLvjbXtRHKQ2DW0-59" value="&lt;span style=&quot;font-size: 16px; white-space: pre;&quot;&gt;&#x9;&lt;/span&gt;&lt;span style=&quot;font-size: 16px;&quot;&gt;&lt;b&gt;interrupts = &amp;lt;RK_PB5&amp;nbsp; IRQ_TYPE_EDGE_RISING&amp;gt;;&amp;nbsp; &amp;nbsp; &amp;nbsp; &amp;nbsp; &amp;nbsp; &amp;nbsp; &lt;span style=&quot;white-space: pre;&quot;&gt;&#x9;&lt;/span&gt;&lt;/b&gt;&lt;/span&gt;" style="text;html=1;align=left;verticalAlign=middle;whiteSpace=wrap;rounded=0;dashed=1;fontSize=14;fillColor=#e1d5e7;strokeColor=none;" vertex="1" parent="1">
          <mxGeometry x="120" y="990" width="640" height="20" as="geometry" />
        </mxCell>
        <mxCell id="hWpMFfLvjbXtRHKQ2DW0-60" value="&lt;span style=&quot;font-size: 16px;&quot;&gt;};&lt;/span&gt;" style="text;html=1;align=left;verticalAlign=middle;whiteSpace=wrap;rounded=0;dashed=1;fontSize=14;fillColor=#e1d5e7;strokeColor=none;" vertex="1" parent="1">
          <mxGeometry x="120" y="1010" width="640" height="20" as="geometry" />
        </mxCell>
        <mxCell id="hWpMFfLvjbXtRHKQ2DW0-204" style="edgeStyle=orthogonalEdgeStyle;rounded=0;orthogonalLoop=1;jettySize=auto;html=1;entryX=0;entryY=0.5;entryDx=0;entryDy=0;fillColor=#e1d5e7;strokeColor=#9673a6;strokeWidth=2;curved=1;" edge="1" parent="1" source="hWpMFfLvjbXtRHKQ2DW0-61" target="hWpMFfLvjbXtRHKQ2DW0-203">
          <mxGeometry relative="1" as="geometry" />
        </mxCell>
        <mxCell id="hWpMFfLvjbXtRHKQ2DW0-61" value="&lt;span style=&quot;font-size: 16px;&quot;&gt;&amp;amp;gt911_dsi0 {&lt;/span&gt;" style="text;html=1;align=left;verticalAlign=middle;whiteSpace=wrap;rounded=0;dashed=1;fontSize=14;fillColor=#e1d5e7;strokeColor=none;" vertex="1" parent="1">
          <mxGeometry x="120" y="950" width="640" height="20" as="geometry" />
        </mxCell>
        <mxCell id="hWpMFfLvjbXtRHKQ2DW0-74" value="" style="shape=table;startSize=0;container=1;collapsible=0;childLayout=tableLayout;fixedRows=1;rowLines=0;fontStyle=0;strokeColor=#6c8ebf;fontSize=16;fillColor=none;" vertex="1" parent="1">
          <mxGeometry x="120" y="1099" width="590" height="182" as="geometry" />
        </mxCell>
        <mxCell id="hWpMFfLvjbXtRHKQ2DW0-75" value="" style="shape=tableRow;horizontal=0;startSize=0;swimlaneHead=0;swimlaneBody=0;top=0;left=0;bottom=0;right=0;collapsible=0;dropTarget=0;fillColor=none;points=[[0,0.5],[1,0.5]];portConstraint=eastwest;strokeColor=#6c8ebf;fontSize=16;" vertex="1" parent="hWpMFfLvjbXtRHKQ2DW0-74">
          <mxGeometry width="590" height="61" as="geometry" />
        </mxCell>
        <mxCell id="hWpMFfLvjbXtRHKQ2DW0-76" value="&lt;font color=&quot;#000000&quot;&gt;&lt;b&gt;获取中断号&lt;/b&gt;&lt;/font&gt;" style="shape=partialRectangle;html=1;whiteSpace=wrap;connectable=0;fillColor=none;top=0;left=0;bottom=0;right=0;overflow=hidden;pointerEvents=1;strokeColor=#666666;fontSize=16;fontColor=#333333;" vertex="1" parent="hWpMFfLvjbXtRHKQ2DW0-75">
          <mxGeometry width="110" height="61" as="geometry">
            <mxRectangle width="110" height="61" as="alternateBounds" />
          </mxGeometry>
        </mxCell>
        <mxCell id="hWpMFfLvjbXtRHKQ2DW0-77" value="unsigned int &lt;b&gt;irq_of_parse_and_map&lt;/b&gt;(struct device_node *node, int index)" style="shape=partialRectangle;html=1;whiteSpace=wrap;connectable=0;fillColor=none;top=0;left=0;bottom=0;right=0;align=left;spacingLeft=6;overflow=hidden;strokeColor=#6c8ebf;fontSize=16;" vertex="1" parent="hWpMFfLvjbXtRHKQ2DW0-75">
          <mxGeometry x="110" width="480" height="61" as="geometry">
            <mxRectangle width="480" height="61" as="alternateBounds" />
          </mxGeometry>
        </mxCell>
        <mxCell id="hWpMFfLvjbXtRHKQ2DW0-78" value="" style="shape=tableRow;horizontal=0;startSize=0;swimlaneHead=0;swimlaneBody=0;top=0;left=0;bottom=0;right=0;collapsible=0;dropTarget=0;fillColor=none;points=[[0,0.5],[1,0.5]];portConstraint=eastwest;strokeColor=#6c8ebf;fontSize=16;" vertex="1" parent="hWpMFfLvjbXtRHKQ2DW0-74">
          <mxGeometry y="61" width="590" height="60" as="geometry" />
        </mxCell>
        <mxCell id="hWpMFfLvjbXtRHKQ2DW0-79" value="&lt;font color=&quot;#000000&quot;&gt;&lt;b&gt;获取中断类型&lt;/b&gt;&lt;/font&gt;" style="shape=partialRectangle;html=1;whiteSpace=wrap;connectable=0;fillColor=none;top=0;left=0;bottom=0;right=0;overflow=hidden;pointerEvents=1;strokeColor=#666666;fontSize=16;fontColor=#333333;" vertex="1" parent="hWpMFfLvjbXtRHKQ2DW0-78">
          <mxGeometry width="110" height="60" as="geometry">
            <mxRectangle width="110" height="60" as="alternateBounds" />
          </mxGeometry>
        </mxCell>
        <mxCell id="hWpMFfLvjbXtRHKQ2DW0-80" value="u32 &lt;b&gt;irqd_get_trigger_type&lt;/b&gt;(struct irq_data *d);" style="shape=partialRectangle;html=1;whiteSpace=wrap;connectable=0;fillColor=none;top=0;left=0;bottom=0;right=0;align=left;spacingLeft=6;overflow=hidden;strokeColor=#6c8ebf;fontSize=16;" vertex="1" parent="hWpMFfLvjbXtRHKQ2DW0-78">
          <mxGeometry x="110" width="480" height="60" as="geometry">
            <mxRectangle width="480" height="60" as="alternateBounds" />
          </mxGeometry>
        </mxCell>
        <mxCell id="hWpMFfLvjbXtRHKQ2DW0-208" value="" style="shape=tableRow;horizontal=0;startSize=0;swimlaneHead=0;swimlaneBody=0;top=0;left=0;bottom=0;right=0;collapsible=0;dropTarget=0;fillColor=none;points=[[0,0.5],[1,0.5]];portConstraint=eastwest;strokeColor=#6c8ebf;fontSize=16;" vertex="1" parent="hWpMFfLvjbXtRHKQ2DW0-74">
          <mxGeometry y="121" width="590" height="61" as="geometry" />
        </mxCell>
        <mxCell id="hWpMFfLvjbXtRHKQ2DW0-209" value="&lt;font style=&quot;color: rgb(255, 0, 0);&quot;&gt;&lt;b style=&quot;&quot;&gt;获取中断号（推荐）&lt;/b&gt;&lt;/font&gt;" style="shape=partialRectangle;html=1;whiteSpace=wrap;connectable=0;fillColor=none;top=0;left=0;bottom=0;right=0;overflow=hidden;pointerEvents=1;strokeColor=#666666;fontSize=16;fontColor=#333333;" vertex="1" parent="hWpMFfLvjbXtRHKQ2DW0-208">
          <mxGeometry width="110" height="61" as="geometry">
            <mxRectangle width="110" height="61" as="alternateBounds" />
          </mxGeometry>
        </mxCell>
        <mxCell id="hWpMFfLvjbXtRHKQ2DW0-210" value="int &lt;b&gt;of_irq_get&lt;/b&gt;(struct device_node *dev, int index);" style="shape=partialRectangle;html=1;whiteSpace=wrap;connectable=0;fillColor=none;top=0;left=0;bottom=0;right=0;align=left;spacingLeft=6;overflow=hidden;strokeColor=#6c8ebf;fontSize=16;" vertex="1" parent="hWpMFfLvjbXtRHKQ2DW0-208">
          <mxGeometry x="110" width="480" height="61" as="geometry">
            <mxRectangle width="480" height="61" as="alternateBounds" />
          </mxGeometry>
        </mxCell>
        <mxCell id="hWpMFfLvjbXtRHKQ2DW0-81" value="&lt;h1&gt;&lt;span style=&quot;font-size: 16px;&quot;&gt;1、从设备树获取中断号&lt;/span&gt;&lt;/h1&gt;" style="rounded=0;whiteSpace=wrap;html=1;fillColor=#dae8fc;strokeColor=#6c8ebf;" vertex="1" parent="1">
          <mxGeometry x="120" y="1070" width="590" height="29" as="geometry" />
        </mxCell>
        <mxCell id="hWpMFfLvjbXtRHKQ2DW0-82" value="&lt;b&gt;node：&lt;/b&gt;中断设备节点，&lt;b&gt;index：&lt;/b&gt;中断号在中断数组的位置&lt;br&gt;&lt;b&gt;返回值：&lt;/b&gt;成功-中断号，失败-0" style="text;html=1;align=left;verticalAlign=middle;whiteSpace=wrap;rounded=0;fillColor=#dae8fc;strokeColor=#6c8ebf;dashed=1;fontSize=14;" vertex="1" parent="1">
          <mxGeometry x="760" y="1102.25" width="360" height="54.5" as="geometry" />
        </mxCell>
        <mxCell id="hWpMFfLvjbXtRHKQ2DW0-83" value="&lt;b&gt;d：&lt;/b&gt;中断数据结构（irq_data）&lt;br&gt;&lt;b&gt;返回值：&lt;/b&gt;u32整型，成功获取的中断触发类型" style="text;html=1;align=left;verticalAlign=middle;whiteSpace=wrap;rounded=0;fillColor=#dae8fc;strokeColor=#6c8ebf;dashed=1;fontSize=14;" vertex="1" parent="1">
          <mxGeometry x="760" y="1162.5" width="360" height="55" as="geometry" />
        </mxCell>
        <mxCell id="hWpMFfLvjbXtRHKQ2DW0-84" style="edgeStyle=orthogonalEdgeStyle;rounded=0;orthogonalLoop=1;jettySize=auto;html=1;entryX=0;entryY=0.5;entryDx=0;entryDy=0;fillColor=#dae8fc;strokeColor=#6c8ebf;" edge="1" parent="1" source="hWpMFfLvjbXtRHKQ2DW0-75" target="hWpMFfLvjbXtRHKQ2DW0-82">
          <mxGeometry relative="1" as="geometry" />
        </mxCell>
        <mxCell id="hWpMFfLvjbXtRHKQ2DW0-85" style="edgeStyle=orthogonalEdgeStyle;rounded=0;orthogonalLoop=1;jettySize=auto;html=1;entryX=0;entryY=0.5;entryDx=0;entryDy=0;fillColor=#dae8fc;strokeColor=#6c8ebf;" edge="1" parent="1" source="hWpMFfLvjbXtRHKQ2DW0-78" target="hWpMFfLvjbXtRHKQ2DW0-83">
          <mxGeometry relative="1" as="geometry" />
        </mxCell>
        <mxCell id="hWpMFfLvjbXtRHKQ2DW0-151" value="" style="shape=table;startSize=0;container=1;collapsible=0;childLayout=tableLayout;fixedRows=1;rowLines=0;fontStyle=0;strokeColor=#d79b00;fontSize=16;fillColor=none;" vertex="1" parent="1">
          <mxGeometry x="830" y="609" width="610" height="121" as="geometry" />
        </mxCell>
        <mxCell id="hWpMFfLvjbXtRHKQ2DW0-152" value="" style="shape=tableRow;horizontal=0;startSize=0;swimlaneHead=0;swimlaneBody=0;top=0;left=0;bottom=0;right=0;collapsible=0;dropTarget=0;fillColor=none;points=[[0,0.5],[1,0.5]];portConstraint=eastwest;strokeColor=inherit;fontSize=16;" vertex="1" parent="hWpMFfLvjbXtRHKQ2DW0-151">
          <mxGeometry width="610" height="31" as="geometry" />
        </mxCell>
        <mxCell id="hWpMFfLvjbXtRHKQ2DW0-153" value="&lt;b&gt;&lt;font style=&quot;color: light-dark(rgb(0, 0, 0), rgb(255, 255, 255));&quot;&gt;interrupts&lt;/font&gt;&lt;/b&gt;" style="shape=partialRectangle;html=1;whiteSpace=wrap;connectable=0;fillColor=none;top=0;left=0;bottom=0;right=0;overflow=hidden;pointerEvents=1;strokeColor=#82b366;fontSize=16;" vertex="1" parent="hWpMFfLvjbXtRHKQ2DW0-152">
          <mxGeometry width="150" height="31" as="geometry">
            <mxRectangle width="150" height="31" as="alternateBounds" />
          </mxGeometry>
        </mxCell>
        <mxCell id="hWpMFfLvjbXtRHKQ2DW0-154" value="描述该节点的中断信息" style="shape=partialRectangle;html=1;whiteSpace=wrap;connectable=0;fillColor=none;top=0;left=0;bottom=0;right=0;align=left;spacingLeft=6;overflow=hidden;strokeColor=#82b366;fontSize=16;" vertex="1" parent="hWpMFfLvjbXtRHKQ2DW0-152">
          <mxGeometry x="150" width="460" height="31" as="geometry">
            <mxRectangle width="460" height="31" as="alternateBounds" />
          </mxGeometry>
        </mxCell>
        <mxCell id="hWpMFfLvjbXtRHKQ2DW0-155" value="" style="shape=tableRow;horizontal=0;startSize=0;swimlaneHead=0;swimlaneBody=0;top=0;left=0;bottom=0;right=0;collapsible=0;dropTarget=0;fillColor=none;points=[[0,0.5],[1,0.5]];portConstraint=eastwest;strokeColor=inherit;fontSize=16;" vertex="1" parent="hWpMFfLvjbXtRHKQ2DW0-151">
          <mxGeometry y="31" width="610" height="90" as="geometry" />
        </mxCell>
        <mxCell id="hWpMFfLvjbXtRHKQ2DW0-156" value="&lt;b&gt;内容分析&lt;/b&gt;" style="shape=partialRectangle;html=1;whiteSpace=wrap;connectable=0;fillColor=none;top=0;left=0;bottom=0;right=0;overflow=hidden;pointerEvents=1;strokeColor=#d6b656;fontSize=16;" vertex="1" parent="hWpMFfLvjbXtRHKQ2DW0-155">
          <mxGeometry width="150" height="90" as="geometry">
            <mxRectangle width="150" height="90" as="alternateBounds" />
          </mxGeometry>
        </mxCell>
        <mxCell id="hWpMFfLvjbXtRHKQ2DW0-157" value="&lt;b&gt;第一个u32&lt;/b&gt;：GIC_SPI（值为0），共享中断类型&lt;br&gt;&lt;b&gt;第二个u32&lt;/b&gt;：103，表示中断号（135-32 = 103）&lt;br&gt;&amp;nbsp; &amp;nbsp; &amp;nbsp; &amp;nbsp; &amp;nbsp; &amp;nbsp; &amp;nbsp; &amp;nbsp; &amp;nbsp; &amp;nbsp; &amp;nbsp;135-查文档可以获得spi0的中断号是135&lt;br&gt;&lt;b&gt;第三个u32&lt;/b&gt;：表示中断触发方式为高电平触发" style="shape=partialRectangle;html=1;whiteSpace=wrap;connectable=0;fillColor=none;top=0;left=0;bottom=0;right=0;align=left;spacingLeft=6;overflow=hidden;strokeColor=#d6b656;fontSize=16;" vertex="1" parent="hWpMFfLvjbXtRHKQ2DW0-155">
          <mxGeometry x="150" width="460" height="90" as="geometry">
            <mxRectangle width="460" height="90" as="alternateBounds" />
          </mxGeometry>
        </mxCell>
        <mxCell id="hWpMFfLvjbXtRHKQ2DW0-173" value="&lt;h1&gt;&lt;font style=&quot;&quot;&gt;&lt;font style=&quot;font-size: 18px;&quot;&gt;SPI0设备使用中断（非级联）&lt;/font&gt;&lt;br&gt;&lt;/font&gt;&lt;/h1&gt;" style="rounded=0;whiteSpace=wrap;html=1;fillColor=#ffe6cc;strokeColor=#d79b00;" vertex="1" parent="1">
          <mxGeometry x="830" y="580" width="610" height="29" as="geometry" />
        </mxCell>
        <mxCell id="hWpMFfLvjbXtRHKQ2DW0-175" value="" style="shape=table;startSize=0;container=1;collapsible=0;childLayout=tableLayout;fixedRows=1;rowLines=0;fontStyle=0;strokeColor=#b85450;fontSize=16;fillColor=none;" vertex="1" parent="1">
          <mxGeometry x="830" y="781" width="610" height="130" as="geometry" />
        </mxCell>
        <mxCell id="hWpMFfLvjbXtRHKQ2DW0-176" value="" style="shape=tableRow;horizontal=0;startSize=0;swimlaneHead=0;swimlaneBody=0;top=0;left=0;bottom=0;right=0;collapsible=0;dropTarget=0;fillColor=none;points=[[0,0.5],[1,0.5]];portConstraint=eastwest;strokeColor=inherit;fontSize=16;" vertex="1" parent="hWpMFfLvjbXtRHKQ2DW0-175">
          <mxGeometry width="610" height="31" as="geometry" />
        </mxCell>
        <mxCell id="hWpMFfLvjbXtRHKQ2DW0-177" value="&lt;b&gt;interrupt-controller&lt;/b&gt;" style="shape=partialRectangle;html=1;whiteSpace=wrap;connectable=0;fillColor=none;top=0;left=0;bottom=0;right=0;overflow=hidden;pointerEvents=1;strokeColor=#82b366;fontSize=16;" vertex="1" parent="hWpMFfLvjbXtRHKQ2DW0-176">
          <mxGeometry width="150" height="31" as="geometry">
            <mxRectangle width="150" height="31" as="alternateBounds" />
          </mxGeometry>
        </mxCell>
        <mxCell id="hWpMFfLvjbXtRHKQ2DW0-178" value="表示该GPIO节点也是一个中断控制器" style="shape=partialRectangle;html=1;whiteSpace=wrap;connectable=0;fillColor=none;top=0;left=0;bottom=0;right=0;align=left;spacingLeft=6;overflow=hidden;strokeColor=#82b366;fontSize=16;" vertex="1" parent="hWpMFfLvjbXtRHKQ2DW0-176">
          <mxGeometry x="150" width="460" height="31" as="geometry">
            <mxRectangle width="460" height="31" as="alternateBounds" />
          </mxGeometry>
        </mxCell>
        <mxCell id="hWpMFfLvjbXtRHKQ2DW0-179" value="" style="shape=tableRow;horizontal=0;startSize=0;swimlaneHead=0;swimlaneBody=0;top=0;left=0;bottom=0;right=0;collapsible=0;dropTarget=0;fillColor=none;points=[[0,0.5],[1,0.5]];portConstraint=eastwest;strokeColor=#b85450;fontSize=16;" vertex="1" parent="hWpMFfLvjbXtRHKQ2DW0-175">
          <mxGeometry y="31" width="610" height="68" as="geometry" />
        </mxCell>
        <mxCell id="hWpMFfLvjbXtRHKQ2DW0-180" value="&lt;b&gt;#interrupt-cells&lt;/b&gt;" style="shape=partialRectangle;html=1;whiteSpace=wrap;connectable=0;fillColor=none;top=0;left=0;bottom=0;right=0;overflow=hidden;pointerEvents=1;strokeColor=#d6b656;fontSize=16;" vertex="1" parent="hWpMFfLvjbXtRHKQ2DW0-179">
          <mxGeometry width="150" height="68" as="geometry">
            <mxRectangle width="150" height="68" as="alternateBounds" />
          </mxGeometry>
        </mxCell>
        <mxCell id="hWpMFfLvjbXtRHKQ2DW0-181" value="该控制器管理的中断，使用interrupts属性时，u32的个数&lt;b&gt;&lt;br&gt;第一个u32&lt;/b&gt;：使用的GPIO引脚号&lt;br&gt;&lt;b&gt;第二个u32&lt;/b&gt;：中断触发方式" style="shape=partialRectangle;html=1;whiteSpace=wrap;connectable=0;fillColor=none;top=0;left=0;bottom=0;right=0;align=left;spacingLeft=6;overflow=hidden;strokeColor=#d6b656;fontSize=16;" vertex="1" parent="hWpMFfLvjbXtRHKQ2DW0-179">
          <mxGeometry x="150" width="460" height="68" as="geometry">
            <mxRectangle width="460" height="68" as="alternateBounds" />
          </mxGeometry>
        </mxCell>
        <mxCell id="hWpMFfLvjbXtRHKQ2DW0-183" value="" style="shape=tableRow;horizontal=0;startSize=0;swimlaneHead=0;swimlaneBody=0;top=0;left=0;bottom=0;right=0;collapsible=0;dropTarget=0;fillColor=none;points=[[0,0.5],[1,0.5]];portConstraint=eastwest;strokeColor=inherit;fontSize=16;" vertex="1" parent="hWpMFfLvjbXtRHKQ2DW0-175">
          <mxGeometry y="99" width="610" height="31" as="geometry" />
        </mxCell>
        <mxCell id="hWpMFfLvjbXtRHKQ2DW0-184" value="&lt;b&gt;interrupts&lt;/b&gt;" style="shape=partialRectangle;html=1;whiteSpace=wrap;connectable=0;fillColor=none;top=0;left=0;bottom=0;right=0;overflow=hidden;pointerEvents=1;strokeColor=#82b366;fontSize=16;" vertex="1" parent="hWpMFfLvjbXtRHKQ2DW0-183">
          <mxGeometry width="150" height="31" as="geometry">
            <mxRectangle width="150" height="31" as="alternateBounds" />
          </mxGeometry>
        </mxCell>
        <mxCell id="hWpMFfLvjbXtRHKQ2DW0-185" value="描述该节点的中断信息，内容分析同上SPI0" style="shape=partialRectangle;html=1;whiteSpace=wrap;connectable=0;fillColor=none;top=0;left=0;bottom=0;right=0;align=left;spacingLeft=6;overflow=hidden;strokeColor=#82b366;fontSize=16;" vertex="1" parent="hWpMFfLvjbXtRHKQ2DW0-183">
          <mxGeometry x="150" width="460" height="31" as="geometry">
            <mxRectangle width="460" height="31" as="alternateBounds" />
          </mxGeometry>
        </mxCell>
        <mxCell id="hWpMFfLvjbXtRHKQ2DW0-182" value="&lt;h1&gt;&lt;font style=&quot;&quot;&gt;&lt;font style=&quot;font-size: 18px;&quot;&gt;GPIO中断控制器（次级）&lt;/font&gt;&lt;br&gt;&lt;/font&gt;&lt;/h1&gt;" style="rounded=0;whiteSpace=wrap;html=1;fillColor=#f8cecc;strokeColor=#b85450;" vertex="1" parent="1">
          <mxGeometry x="830" y="752" width="610" height="29" as="geometry" />
        </mxCell>
        <mxCell id="hWpMFfLvjbXtRHKQ2DW0-192" value="&lt;font style=&quot;font-size: 16px;&quot;&gt;提示：&lt;br&gt;spi0个gpio0没有&lt;b&gt;interrupt-parent属性&lt;/b&gt;&lt;br&gt;因为在根节点下面已经定义了&lt;/font&gt;" style="rounded=1;whiteSpace=wrap;html=1;align=left;" vertex="1" parent="1">
          <mxGeometry x="460" y="670" width="280" height="69" as="geometry" />
        </mxCell>
        <mxCell id="hWpMFfLvjbXtRHKQ2DW0-193" value="" style="shape=table;startSize=0;container=1;collapsible=0;childLayout=tableLayout;fixedRows=1;rowLines=0;fontStyle=0;strokeColor=#9673a6;fontSize=16;fillColor=none;" vertex="1" parent="1">
          <mxGeometry x="830" y="979" width="610" height="61" as="geometry" />
        </mxCell>
        <mxCell id="hWpMFfLvjbXtRHKQ2DW0-194" value="" style="shape=tableRow;horizontal=0;startSize=0;swimlaneHead=0;swimlaneBody=0;top=0;left=0;bottom=0;right=0;collapsible=0;dropTarget=0;fillColor=none;points=[[0,0.5],[1,0.5]];portConstraint=eastwest;strokeColor=inherit;fontSize=16;" vertex="1" parent="hWpMFfLvjbXtRHKQ2DW0-193">
          <mxGeometry width="610" height="31" as="geometry" />
        </mxCell>
        <mxCell id="hWpMFfLvjbXtRHKQ2DW0-195" value="&lt;b&gt;interrupt-parent&lt;/b&gt;" style="shape=partialRectangle;html=1;whiteSpace=wrap;connectable=0;fillColor=none;top=0;left=0;bottom=0;right=0;overflow=hidden;pointerEvents=1;strokeColor=#82b366;fontSize=16;" vertex="1" parent="hWpMFfLvjbXtRHKQ2DW0-194">
          <mxGeometry width="150" height="31" as="geometry">
            <mxRectangle width="150" height="31" as="alternateBounds" />
          </mxGeometry>
        </mxCell>
        <mxCell id="hWpMFfLvjbXtRHKQ2DW0-196" value="指定父中断控制器为gpio0" style="shape=partialRectangle;html=1;whiteSpace=wrap;connectable=0;fillColor=none;top=0;left=0;bottom=0;right=0;align=left;spacingLeft=6;overflow=hidden;strokeColor=#82b366;fontSize=16;" vertex="1" parent="hWpMFfLvjbXtRHKQ2DW0-194">
          <mxGeometry x="150" width="460" height="31" as="geometry">
            <mxRectangle width="460" height="31" as="alternateBounds" />
          </mxGeometry>
        </mxCell>
        <mxCell id="hWpMFfLvjbXtRHKQ2DW0-197" value="" style="shape=tableRow;horizontal=0;startSize=0;swimlaneHead=0;swimlaneBody=0;top=0;left=0;bottom=0;right=0;collapsible=0;dropTarget=0;fillColor=none;points=[[0,0.5],[1,0.5]];portConstraint=eastwest;strokeColor=inherit;fontSize=16;" vertex="1" parent="hWpMFfLvjbXtRHKQ2DW0-193">
          <mxGeometry y="31" width="610" height="30" as="geometry" />
        </mxCell>
        <mxCell id="hWpMFfLvjbXtRHKQ2DW0-198" value="&lt;b&gt;#interrupt-cells&lt;/b&gt;" style="shape=partialRectangle;html=1;whiteSpace=wrap;connectable=0;fillColor=none;top=0;left=0;bottom=0;right=0;overflow=hidden;pointerEvents=1;strokeColor=#d6b656;fontSize=16;" vertex="1" parent="hWpMFfLvjbXtRHKQ2DW0-197">
          <mxGeometry width="150" height="30" as="geometry">
            <mxRectangle width="150" height="30" as="alternateBounds" />
          </mxGeometry>
        </mxCell>
        <mxCell id="hWpMFfLvjbXtRHKQ2DW0-199" value="同上分析即可" style="shape=partialRectangle;html=1;whiteSpace=wrap;connectable=0;fillColor=none;top=0;left=0;bottom=0;right=0;align=left;spacingLeft=6;overflow=hidden;strokeColor=#d6b656;fontSize=16;" vertex="1" parent="hWpMFfLvjbXtRHKQ2DW0-197">
          <mxGeometry x="150" width="460" height="30" as="geometry">
            <mxRectangle width="460" height="30" as="alternateBounds" />
          </mxGeometry>
        </mxCell>
        <mxCell id="hWpMFfLvjbXtRHKQ2DW0-203" value="&lt;h1&gt;&lt;font style=&quot;&quot;&gt;&lt;font style=&quot;font-size: 18px;&quot;&gt;GT911触摸屏控制器设备&lt;/font&gt;&lt;br&gt;&lt;/font&gt;&lt;/h1&gt;" style="rounded=0;whiteSpace=wrap;html=1;fillColor=#e1d5e7;strokeColor=#9673a6;" vertex="1" parent="1">
          <mxGeometry x="830" y="950" width="610" height="29" as="geometry" />
        </mxCell>
        <mxCell id="hWpMFfLvjbXtRHKQ2DW0-211" value="&lt;b&gt;dev：&lt;/b&gt;指向设备树中对应的设备节点&lt;br&gt;&lt;b&gt;index：&lt;/b&gt;索引号，interrupts可能有多条中断信息&lt;br&gt;&lt;b&gt;返回值：&lt;/b&gt;成功-中断号，失败-负数错误码" style="text;html=1;align=left;verticalAlign=middle;whiteSpace=wrap;rounded=0;fillColor=#dae8fc;strokeColor=#6c8ebf;dashed=1;fontSize=14;" vertex="1" parent="1">
          <mxGeometry x="760" y="1226" width="360" height="55" as="geometry" />
        </mxCell>
        <mxCell id="hWpMFfLvjbXtRHKQ2DW0-212" value="" style="shape=table;startSize=0;container=1;collapsible=0;childLayout=tableLayout;fixedRows=1;rowLines=0;fontStyle=0;strokeColor=#82b366;fontSize=16;fillColor=none;" vertex="1" parent="1">
          <mxGeometry x="120" y="1339" width="590" height="152" as="geometry" />
        </mxCell>
        <mxCell id="hWpMFfLvjbXtRHKQ2DW0-213" value="" style="shape=tableRow;horizontal=0;startSize=0;swimlaneHead=0;swimlaneBody=0;top=0;left=0;bottom=0;right=0;collapsible=0;dropTarget=0;fillColor=none;points=[[0,0.5],[1,0.5]];portConstraint=eastwest;strokeColor=#6c8ebf;fontSize=16;" vertex="1" parent="hWpMFfLvjbXtRHKQ2DW0-212">
          <mxGeometry width="590" height="31" as="geometry" />
        </mxCell>
        <mxCell id="hWpMFfLvjbXtRHKQ2DW0-214" value="&lt;font color=&quot;#000000&quot;&gt;&lt;b&gt;必要条件&lt;/b&gt;&lt;/font&gt;" style="shape=partialRectangle;html=1;whiteSpace=wrap;connectable=0;fillColor=none;top=0;left=0;bottom=0;right=0;overflow=hidden;pointerEvents=1;strokeColor=#666666;fontSize=16;fontColor=#333333;" vertex="1" parent="hWpMFfLvjbXtRHKQ2DW0-213">
          <mxGeometry width="110" height="31" as="geometry">
            <mxRectangle width="110" height="31" as="alternateBounds" />
          </mxGeometry>
        </mxCell>
        <mxCell id="hWpMFfLvjbXtRHKQ2DW0-215" value="先确定设备节点（device_node）是可以被转换为platform_device" style="shape=partialRectangle;html=1;whiteSpace=wrap;connectable=0;fillColor=none;top=0;left=0;bottom=0;right=0;align=left;spacingLeft=6;overflow=hidden;strokeColor=#6c8ebf;fontSize=16;" vertex="1" parent="hWpMFfLvjbXtRHKQ2DW0-213">
          <mxGeometry x="110" width="480" height="31" as="geometry">
            <mxRectangle width="480" height="31" as="alternateBounds" />
          </mxGeometry>
        </mxCell>
        <mxCell id="hWpMFfLvjbXtRHKQ2DW0-216" value="" style="shape=tableRow;horizontal=0;startSize=0;swimlaneHead=0;swimlaneBody=0;top=0;left=0;bottom=0;right=0;collapsible=0;dropTarget=0;fillColor=none;points=[[0,0.5],[1,0.5]];portConstraint=eastwest;strokeColor=#6c8ebf;fontSize=16;" vertex="1" parent="hWpMFfLvjbXtRHKQ2DW0-212">
          <mxGeometry y="31" width="590" height="60" as="geometry" />
        </mxCell>
        <mxCell id="hWpMFfLvjbXtRHKQ2DW0-217" value="&lt;font color=&quot;#000000&quot;&gt;&lt;b&gt;获取中断资源&lt;/b&gt;&lt;/font&gt;" style="shape=partialRectangle;html=1;whiteSpace=wrap;connectable=0;fillColor=none;top=0;left=0;bottom=0;right=0;overflow=hidden;pointerEvents=1;strokeColor=#666666;fontSize=16;fontColor=#333333;" vertex="1" parent="hWpMFfLvjbXtRHKQ2DW0-216">
          <mxGeometry width="110" height="60" as="geometry">
            <mxRectangle width="110" height="60" as="alternateBounds" />
          </mxGeometry>
        </mxCell>
        <mxCell id="hWpMFfLvjbXtRHKQ2DW0-218" value="&lt;div&gt;struct resource *&lt;b&gt;platform_get_resource&lt;/b&gt;(struct platform_device *pdev,&amp;nbsp;&amp;nbsp;&lt;span style=&quot;background-color: transparent; color: light-dark(rgb(0, 0, 0), rgb(255, 255, 255));&quot;&gt;unsigned int type, unsigned int num);&amp;nbsp;&lt;/span&gt;&lt;/div&gt;" style="shape=partialRectangle;html=1;whiteSpace=wrap;connectable=0;fillColor=none;top=0;left=0;bottom=0;right=0;align=left;spacingLeft=6;overflow=hidden;strokeColor=#6c8ebf;fontSize=16;" vertex="1" parent="hWpMFfLvjbXtRHKQ2DW0-216">
          <mxGeometry x="110" width="480" height="60" as="geometry">
            <mxRectangle width="480" height="60" as="alternateBounds" />
          </mxGeometry>
        </mxCell>
        <mxCell id="hWpMFfLvjbXtRHKQ2DW0-219" value="" style="shape=tableRow;horizontal=0;startSize=0;swimlaneHead=0;swimlaneBody=0;top=0;left=0;bottom=0;right=0;collapsible=0;dropTarget=0;fillColor=none;points=[[0,0.5],[1,0.5]];portConstraint=eastwest;strokeColor=#6c8ebf;fontSize=16;" vertex="1" parent="hWpMFfLvjbXtRHKQ2DW0-212">
          <mxGeometry y="91" width="590" height="61" as="geometry" />
        </mxCell>
        <mxCell id="hWpMFfLvjbXtRHKQ2DW0-220" value="&lt;font color=&quot;#000000&quot;&gt;&lt;b&gt;获取中断号&lt;/b&gt;&lt;/font&gt;" style="shape=partialRectangle;html=1;whiteSpace=wrap;connectable=0;fillColor=none;top=0;left=0;bottom=0;right=0;overflow=hidden;pointerEvents=1;strokeColor=#666666;fontSize=16;fontColor=#333333;" vertex="1" parent="hWpMFfLvjbXtRHKQ2DW0-219">
          <mxGeometry width="110" height="61" as="geometry">
            <mxRectangle width="110" height="61" as="alternateBounds" />
          </mxGeometry>
        </mxCell>
        <mxCell id="hWpMFfLvjbXtRHKQ2DW0-221" value="&lt;div&gt;int &lt;b&gt;platform_get_irq&lt;/b&gt;(struct platform_device *pdev, unsigned int num);&lt;/div&gt;" style="shape=partialRectangle;html=1;whiteSpace=wrap;connectable=0;fillColor=none;top=0;left=0;bottom=0;right=0;align=left;spacingLeft=6;overflow=hidden;strokeColor=#6c8ebf;fontSize=16;" vertex="1" parent="hWpMFfLvjbXtRHKQ2DW0-219">
          <mxGeometry x="110" width="480" height="61" as="geometry">
            <mxRectangle width="480" height="61" as="alternateBounds" />
          </mxGeometry>
        </mxCell>
        <mxCell id="hWpMFfLvjbXtRHKQ2DW0-222" value="&lt;h1&gt;&lt;span style=&quot;font-size: 16px;&quot;&gt;2、从pdev获取中断号&lt;/span&gt;&lt;/h1&gt;" style="rounded=0;whiteSpace=wrap;html=1;fillColor=#d5e8d4;strokeColor=#82b366;" vertex="1" parent="1">
          <mxGeometry x="120" y="1310" width="590" height="29" as="geometry" />
        </mxCell>
        <mxCell id="hWpMFfLvjbXtRHKQ2DW0-224" value="&lt;b&gt;pdev：&lt;/b&gt;指向设备树中对应的设备节点&lt;br&gt;&lt;b&gt;type：&lt;/b&gt;资源类型，IORESOURCE_IRQ&lt;br&gt;&lt;b&gt;num：&lt;/b&gt;资源中的那一个，类似索引&lt;br&gt;&lt;b&gt;返回值：&lt;/b&gt;resource结构体，其&lt;b&gt;start字段就是中断号&lt;/b&gt;" style="text;html=1;align=left;verticalAlign=middle;whiteSpace=wrap;rounded=0;fillColor=#d5e8d4;strokeColor=#82b366;dashed=1;fontSize=14;" vertex="1" parent="1">
          <mxGeometry x="760" y="1339" width="360" height="80" as="geometry" />
        </mxCell>
        <mxCell id="hWpMFfLvjbXtRHKQ2DW0-226" style="edgeStyle=orthogonalEdgeStyle;rounded=0;orthogonalLoop=1;jettySize=auto;html=1;entryX=0;entryY=0.5;entryDx=0;entryDy=0;fillColor=#d5e8d4;strokeColor=#82b366;" edge="1" source="hWpMFfLvjbXtRHKQ2DW0-216" target="hWpMFfLvjbXtRHKQ2DW0-224" parent="1">
          <mxGeometry relative="1" as="geometry" />
        </mxCell>
        <mxCell id="hWpMFfLvjbXtRHKQ2DW0-227" value="&lt;b&gt;pdev和num：同上&lt;br&gt;&lt;/b&gt;&lt;b&gt;返回值：&lt;/b&gt;成功-中断号，失败-负数错误码&lt;b&gt;&lt;/b&gt;" style="text;html=1;align=left;verticalAlign=middle;whiteSpace=wrap;rounded=0;fillColor=#d5e8d4;strokeColor=#82b366;dashed=1;fontSize=14;" vertex="1" parent="1">
          <mxGeometry x="760" y="1433" width="360" height="55" as="geometry" />
        </mxCell>
        <mxCell id="hWpMFfLvjbXtRHKQ2DW0-228" style="edgeStyle=orthogonalEdgeStyle;rounded=0;orthogonalLoop=1;jettySize=auto;html=1;entryX=0;entryY=0.5;entryDx=0;entryDy=0;fillColor=#d5e8d4;strokeColor=#82b366;" edge="1" parent="1" source="hWpMFfLvjbXtRHKQ2DW0-219" target="hWpMFfLvjbXtRHKQ2DW0-227">
          <mxGeometry relative="1" as="geometry" />
        </mxCell>
        <mxCell id="hWpMFfLvjbXtRHKQ2DW0-229" value="" style="shape=table;startSize=0;container=1;collapsible=0;childLayout=tableLayout;fixedRows=1;rowLines=0;fontStyle=0;strokeColor=#b85450;fontSize=16;fillColor=none;" vertex="1" parent="1">
          <mxGeometry x="120" y="1549" width="590" height="71.00000000000045" as="geometry" />
        </mxCell>
        <mxCell id="hWpMFfLvjbXtRHKQ2DW0-230" value="" style="shape=tableRow;horizontal=0;startSize=0;swimlaneHead=0;swimlaneBody=0;top=0;left=0;bottom=0;right=0;collapsible=0;dropTarget=0;fillColor=none;points=[[0,0.5],[1,0.5]];portConstraint=eastwest;strokeColor=#6c8ebf;fontSize=16;" vertex="1" parent="hWpMFfLvjbXtRHKQ2DW0-229">
          <mxGeometry width="590" height="31" as="geometry" />
        </mxCell>
        <mxCell id="hWpMFfLvjbXtRHKQ2DW0-231" value="&lt;font color=&quot;#000000&quot;&gt;&lt;b&gt;必要条件&lt;/b&gt;&lt;/font&gt;" style="shape=partialRectangle;html=1;whiteSpace=wrap;connectable=0;fillColor=none;top=0;left=0;bottom=0;right=0;overflow=hidden;pointerEvents=1;strokeColor=#666666;fontSize=16;fontColor=#333333;" vertex="1" parent="hWpMFfLvjbXtRHKQ2DW0-230">
          <mxGeometry width="110" height="31" as="geometry">
            <mxRectangle width="110" height="31" as="alternateBounds" />
          </mxGeometry>
        </mxCell>
        <mxCell id="hWpMFfLvjbXtRHKQ2DW0-232" value="使用前需要确认GPIO是否支持中断，并检查返回值的有效性" style="shape=partialRectangle;html=1;whiteSpace=wrap;connectable=0;fillColor=none;top=0;left=0;bottom=0;right=0;align=left;spacingLeft=6;overflow=hidden;strokeColor=#6c8ebf;fontSize=16;" vertex="1" parent="hWpMFfLvjbXtRHKQ2DW0-230">
          <mxGeometry x="110" width="480" height="31" as="geometry">
            <mxRectangle width="480" height="31" as="alternateBounds" />
          </mxGeometry>
        </mxCell>
        <mxCell id="hWpMFfLvjbXtRHKQ2DW0-233" value="" style="shape=tableRow;horizontal=0;startSize=0;swimlaneHead=0;swimlaneBody=0;top=0;left=0;bottom=0;right=0;collapsible=0;dropTarget=0;fillColor=none;points=[[0,0.5],[1,0.5]];portConstraint=eastwest;strokeColor=#6c8ebf;fontSize=16;" vertex="1" parent="hWpMFfLvjbXtRHKQ2DW0-229">
          <mxGeometry y="31" width="590" height="40" as="geometry" />
        </mxCell>
        <mxCell id="hWpMFfLvjbXtRHKQ2DW0-234" value="&lt;font color=&quot;#000000&quot;&gt;&lt;b&gt;获取中断号&lt;/b&gt;&lt;/font&gt;" style="shape=partialRectangle;html=1;whiteSpace=wrap;connectable=0;fillColor=none;top=0;left=0;bottom=0;right=0;overflow=hidden;pointerEvents=1;strokeColor=#666666;fontSize=16;fontColor=#333333;" vertex="1" parent="hWpMFfLvjbXtRHKQ2DW0-233">
          <mxGeometry width="110" height="40" as="geometry">
            <mxRectangle width="110" height="40" as="alternateBounds" />
          </mxGeometry>
        </mxCell>
        <mxCell id="hWpMFfLvjbXtRHKQ2DW0-235" value="unsigned int gpio_to_irq(unsigned int gpio);" style="shape=partialRectangle;html=1;whiteSpace=wrap;connectable=0;fillColor=none;top=0;left=0;bottom=0;right=0;align=left;spacingLeft=6;overflow=hidden;strokeColor=#6c8ebf;fontSize=16;" vertex="1" parent="hWpMFfLvjbXtRHKQ2DW0-233">
          <mxGeometry x="110" width="480" height="40" as="geometry">
            <mxRectangle width="480" height="40" as="alternateBounds" />
          </mxGeometry>
        </mxCell>
        <mxCell id="hWpMFfLvjbXtRHKQ2DW0-239" value="&lt;h1&gt;&lt;span style=&quot;font-size: 16px;&quot;&gt;3、从gpio获取中断号&lt;/span&gt;&lt;/h1&gt;" style="rounded=0;whiteSpace=wrap;html=1;fillColor=#f8cecc;strokeColor=#b85450;" vertex="1" parent="1">
          <mxGeometry x="120" y="1520" width="590" height="29" as="geometry" />
        </mxCell>
        <mxCell id="hWpMFfLvjbXtRHKQ2DW0-240" value="&lt;b&gt;gpio：&lt;/b&gt;要映射的GPIO引脚号&lt;br&gt;&lt;b&gt;返回值：&lt;/b&gt;成功-中断号，失败-负数错误码" style="text;html=1;align=left;verticalAlign=middle;whiteSpace=wrap;rounded=0;fillColor=#f8cecc;strokeColor=#b85450;dashed=1;fontSize=14;" vertex="1" parent="1">
          <mxGeometry x="760" y="1559" width="360" height="51" as="geometry" />
        </mxCell>
        <mxCell id="hWpMFfLvjbXtRHKQ2DW0-241" style="edgeStyle=orthogonalEdgeStyle;rounded=0;orthogonalLoop=1;jettySize=auto;html=1;entryX=0;entryY=0.5;entryDx=0;entryDy=0;fillColor=#f8cecc;strokeColor=#b85450;" edge="1" source="hWpMFfLvjbXtRHKQ2DW0-233" target="hWpMFfLvjbXtRHKQ2DW0-240" parent="1">
          <mxGeometry relative="1" as="geometry" />
        </mxCell>
        <mxCell id="hWpMFfLvjbXtRHKQ2DW0-245" value="" style="shape=table;startSize=0;container=1;collapsible=0;childLayout=tableLayout;fixedRows=1;rowLines=0;fontStyle=0;strokeColor=#9673a6;fontSize=16;fillColor=none;" vertex="1" parent="1">
          <mxGeometry x="1150" y="1170" width="280" height="80.00000000000091" as="geometry" />
        </mxCell>
        <mxCell id="hWpMFfLvjbXtRHKQ2DW0-246" value="" style="shape=tableRow;horizontal=0;startSize=0;swimlaneHead=0;swimlaneBody=0;top=0;left=0;bottom=0;right=0;collapsible=0;dropTarget=0;fillColor=none;points=[[0,0.5],[1,0.5]];portConstraint=eastwest;strokeColor=#6c8ebf;fontSize=16;" vertex="1" parent="hWpMFfLvjbXtRHKQ2DW0-245">
          <mxGeometry width="280" height="80" as="geometry" />
        </mxCell>
        <mxCell id="hWpMFfLvjbXtRHKQ2DW0-247" value="&lt;font color=&quot;#000000&quot;&gt;&lt;b&gt;说明&lt;/b&gt;&lt;/font&gt;" style="shape=partialRectangle;html=1;whiteSpace=wrap;connectable=0;fillColor=none;top=0;left=0;bottom=0;right=0;overflow=hidden;pointerEvents=1;strokeColor=#666666;fontSize=16;fontColor=#333333;" vertex="1" parent="hWpMFfLvjbXtRHKQ2DW0-246">
          <mxGeometry width="52" height="80" as="geometry">
            <mxRectangle width="52" height="80" as="alternateBounds" />
          </mxGeometry>
        </mxCell>
        <mxCell id="hWpMFfLvjbXtRHKQ2DW0-248" value="可以在对应的设备结构体（i2c_client spi_device）中的&lt;b&gt;irq字段&lt;/b&gt;获取" style="shape=partialRectangle;html=1;whiteSpace=wrap;connectable=0;fillColor=none;top=0;left=0;bottom=0;right=0;align=left;spacingLeft=6;overflow=hidden;strokeColor=#6c8ebf;fontSize=16;" vertex="1" parent="hWpMFfLvjbXtRHKQ2DW0-246">
          <mxGeometry x="52" width="228" height="80" as="geometry">
            <mxRectangle width="228" height="80" as="alternateBounds" />
          </mxGeometry>
        </mxCell>
        <mxCell id="hWpMFfLvjbXtRHKQ2DW0-252" value="&lt;h1&gt;&lt;span style=&quot;font-size: 16px;&quot;&gt;4、从i2c或spi获取中断号&lt;/span&gt;&lt;/h1&gt;" style="rounded=0;whiteSpace=wrap;html=1;fillColor=#e1d5e7;strokeColor=#9673a6;" vertex="1" parent="1">
          <mxGeometry x="1150" y="1141" width="280" height="29" as="geometry" />
        </mxCell>
        <mxCell id="hWpMFfLvjbXtRHKQ2DW0-255" value="&lt;font style=&quot;font-size: 20px;&quot;&gt;🌻Make By Dakkk&lt;/font&gt;" style="html=1;shadow=0;dashed=0;shape=mxgraph.bootstrap.rrect;rSize=5;strokeColor=#1CA5B8;strokeWidth=1;fillColor=none;fontColor=#1CA5B8;whiteSpace=wrap;align=center;verticalAlign=middle;spacingLeft=0;fontStyle=1;fontSize=16;spacing=5;" vertex="1" parent="1">
          <mxGeometry x="240" y="470" width="111.67" height="70.39" as="geometry" />
        </mxCell>
        <mxCell id="hWpMFfLvjbXtRHKQ2DW0-256" style="edgeStyle=orthogonalEdgeStyle;rounded=0;orthogonalLoop=1;jettySize=auto;html=1;entryX=0.001;entryY=0.773;entryDx=0;entryDy=0;entryPerimeter=0;fillColor=#fff2cc;strokeColor=#d6b656;strokeWidth=2;" edge="1" parent="1" source="hWpMFfLvjbXtRHKQ2DW0-20" target="hWpMFfLvjbXtRHKQ2DW0-1">
          <mxGeometry relative="1" as="geometry">
            <Array as="points">
              <mxPoint x="100" y="400" />
              <mxPoint x="100" y="860" />
            </Array>
          </mxGeometry>
        </mxCell>
        <mxCell id="hWpMFfLvjbXtRHKQ2DW0-261" value="&lt;font style=&quot;font-size: 16px;&quot;&gt;&lt;b&gt;中断级联&lt;/b&gt;&lt;/font&gt;" style="edgeLabel;html=1;align=center;verticalAlign=middle;resizable=0;points=[];" vertex="1" connectable="0" parent="hWpMFfLvjbXtRHKQ2DW0-256">
          <mxGeometry x="0.3491" y="-3" relative="1" as="geometry">
            <mxPoint as="offset" />
          </mxGeometry>
        </mxCell>
        <mxCell id="hWpMFfLvjbXtRHKQ2DW0-257" style="edgeStyle=orthogonalEdgeStyle;rounded=0;orthogonalLoop=1;jettySize=auto;html=1;entryX=-0.001;entryY=0.489;entryDx=0;entryDy=0;entryPerimeter=0;fillColor=#fff2cc;strokeColor=#d6b656;strokeWidth=2;" edge="1" parent="1" source="hWpMFfLvjbXtRHKQ2DW0-20" target="hWpMFfLvjbXtRHKQ2DW0-1">
          <mxGeometry relative="1" as="geometry">
            <Array as="points">
              <mxPoint x="80" y="400" />
              <mxPoint x="80" y="647" />
            </Array>
          </mxGeometry>
        </mxCell>
        <mxCell id="hWpMFfLvjbXtRHKQ2DW0-259" value="&lt;font style=&quot;font-size: 16px;&quot;&gt;决定子设备&lt;br&gt;interrupts&lt;/font&gt;" style="edgeLabel;html=1;align=center;verticalAlign=middle;resizable=0;points=[];" vertex="1" connectable="0" parent="hWpMFfLvjbXtRHKQ2DW0-257">
          <mxGeometry x="0.0673" y="-4" relative="1" as="geometry">
            <mxPoint as="offset" />
          </mxGeometry>
        </mxCell>
        <mxCell id="hWpMFfLvjbXtRHKQ2DW0-260" value="&lt;font style=&quot;font-size: 16px;&quot;&gt;决定子设备&lt;br&gt;interrupts&lt;/font&gt;" style="edgeLabel;html=1;align=center;verticalAlign=middle;resizable=0;points=[];" vertex="1" connectable="0" parent="hWpMFfLvjbXtRHKQ2DW0-257">
          <mxGeometry x="0.0673" y="-4" relative="1" as="geometry">
            <mxPoint x="-6" y="386" as="offset" />
          </mxGeometry>
        </mxCell>
      </root>
    </mxGraphModel>
  </diagram>
</mxfile>
